<?xml version="1.0" encoding="UTF-8"?><svg id="Capa_1" xmlns="http://www.w3.org/2000/svg" xmlns:xlink="http://www.w3.org/1999/xlink" viewBox="0 0 218.9 193.5"><defs><style>.cls-1,.cls-2{fill:none;}.cls-3{fill:#fff;}.cls-4{fill:#8be4ff;}.cls-5{fill:#566fb2;}.cls-2{clip-path:url(#clippath);}</style><clipPath id="clippath"><circle class="cls-1" cx="109" cy="97" r="95"/></clipPath></defs><circle class="cls-3" cx="109.19" cy="97.39" r="95"/><g class="cls-2"><path class="cls-5" d="m13.5,171.67c.13.63.26,1.25.42,2.07.39-.37.7-.66,1-.95,3.11-3.11,6.24-6.21,9.33-9.34,3.94-3.98,7.84-7.99,11.76-12,3.55-3.63,7.1-7.26,10.65-10.88,4.03-4.12,8.07-8.23,12.1-12.34,3.75-3.83,7.5-7.65,11.24-11.48,3.35-3.43,6.67-6.88,10.07-10.26.65-.64.5-1.19.22-1.8-1.22-2.7-1.95-5.59-1.53-8.46.32-2.19-.66-3.29-1.97-4.57-5.8-5.66-11.54-11.37-17.32-17.05-2.01-1.97-4.12-3.84-6.07-5.87-3.26-3.39-5.15-7.41-5.53-12.18-.42-5.22.79-9.99,3.99-14.04,2.4-3.05,5.31-5.7,8.1-8.63,2.02,2.03,3.91,3.95,5.83,5.84,4.39,4.33,8.79,8.64,13.2,12.96,3.83,3.75,7.66,7.5,11.49,11.24,3.91,3.83,7.83,7.67,11.74,11.5,3.86,3.78,7.71,7.55,11.57,11.33,3.89,3.8,7.77,7.61,11.66,11.41,3.89,3.8,7.77,7.61,11.66,11.41,3.86,3.78,7.71,7.55,11.57,11.33,3.91,3.83,7.83,7.67,11.74,11.5,3.54,3.46,7.07,6.94,10.64,10.37.8.77.79,1.3,0,2.07-1.8,1.78-3.45,3.72-5.28,5.46-3.42,3.25-7.41,5.29-12.19,5.9-4.15.53-8.01-.19-11.66-2.03-1.64-.83-3.23-1.94-4.55-3.21-5.69-5.48-11.28-11.07-16.91-16.6-2.64-2.59-5.29-5.18-8-7.71-.4-.37-1.18-.59-1.72-.5-3.37.55-6.57.01-9.69-1.23-.83-.33-1.35-.15-1.97.49-3.16,3.23-6.39,6.39-9.57,9.61-3.85,3.9-7.67,7.82-11.5,11.74-3.75,3.83-7.5,7.66-11.24,11.48-3.86,3.94-7.73,7.88-11.59,11.83-3.44,3.51-6.88,7.02-10.3,10.54-3.84,3.95-7.67,7.91-11.51,11.87H13.5c0-6.94,0-13.89,0-20.83Zm106.73-48.97c.13.1.51.34.83.65,5.03,4.94,10.05,9.89,15.09,14.83,2.44,2.39,4.91,4.76,7.37,7.13.17.16.37.3.56.44,2.42,1.64,5.07,2.38,8.01,2.19,3.3-.21,5.96-1.61,8.26-4.08-3.46-3.34-6.86-6.6-10.24-9.88-3.87-3.76-7.72-7.55-11.57-11.32-3.89-3.8-7.77-7.61-11.66-11.41-3.89-3.8-7.77-7.61-11.66-11.41-3.86-3.78-7.71-7.55-11.57-11.33-3.89-3.8-7.77-7.61-11.66-11.41-3.89-3.8-7.78-7.6-11.65-11.41-6.38-6.28-12.74-12.57-19.1-18.86-.37-.36-.65-.8-.96-1.19-1.81,1.49-2.81,3.23-3.55,5.15-1.56,4.05-.75,8.75,2.32,11.79,3.7,3.65,7.44,7.25,11.13,10.91,4.04,3.99,8.04,8.02,12.02,12,.49-.54.93-.86,1.17-1.3,1.45-2.6,5.02-2.92,7.35-.6,3.68,3.67,7.42,7.27,11.13,10.91,3.91,3.83,7.84,7.65,11.74,11.5,2.9,2.86,5.77,5.76,8.65,8.64,1.44,1.44,1.72,3.59.54,5.22-.71.98-1.63,1.81-2.59,2.85Zm-34.48-10.41c-1,1.12-1.9,2.2-2.87,3.2-3.76,3.87-7.54,7.72-11.32,11.57-3.8,3.88-7.61,7.77-11.41,11.65-3.78,3.86-7.55,7.71-11.33,11.57-3.86,3.94-7.71,7.89-11.59,11.82-6.56,6.66-13.14,13.31-19.71,19.96-.03.03-.05.06-.09.09-.6.41-.53.87-.16,1.4,1.63,2.31,3.58,4.26,5.94,5.83.73.49,1.12.47,1.7-.16,2.03-2.17,4.1-4.31,6.18-6.44,3.77-3.86,7.55-7.71,11.32-11.57,3.8-3.88,7.61-7.77,11.41-11.65,3.8-3.88,7.61-7.77,11.41-11.65,3.78-3.86,7.55-7.72,11.33-11.57,5.14-5.23,10.29-10.45,15.44-15.67.39-.39.86-.71,1.36-1.12-2.62-2.5-5.07-4.83-7.62-7.26Zm2.08-19.81c-1.68,4.89-.94,9,2.54,12.52,2.67,2.7,5.34,5.4,8.06,8.04,2.46,2.4,5.02,4.66,8.68,5.04,1.99.21,3.83-.23,5.88-.95-8.43-8.25-16.71-16.36-25.16-24.64Z"/><path class="cls-4" d="m171.95,138.51q-1.07,1.21-2.22.06c-25.44-25.51-50.88-51.02-76.3-76.54-7.4-7.43-14.75-14.9-22.12-22.36-.23-.23-.43-.48-.64-.72.41-.01.9-.19,1.21-.02,3.31,1.85,6.59,3.74,9.85,5.67.37.22.7.68.82,1.1,1.08,3.75,2.97,4.88,6.86,4.14.61-.12,1.38.03,1.93.32,1.82.96,3.56,2.05,5.34,3.08,3.7,2.14,7.4,4.28,11.1,6.41.66.38,1.32.73.69,1.66-.12.18-.1.46-.14.7,0,0-.01.02-.01.02-.38.36-.91.66-1.1,1.11-.9,2.11-.33,4.46,1.26,5.57,1.77,1.24,4.8.99,6.42-.45.75-.67,1.58-1.24,2.39-1.84.64-.48,1.26-.51,2-.07,3.16,1.87,6.35,3.68,9.52,5.51,6.11,3.53,12.22,7.05,18.31,10.61.46.27.74.86,1.11,1.3-1.53,1.53-3.06,3.06-4.59,4.58-.92.06-1.17.69-1.23,1.47-1.45,1.45-2.9,2.89-4.34,4.34-.31.15-.75.22-.93.48-1.75,2.46-1.22,6.71,2.16,7.56,2.06.52,4.1.42,5.8-1.38,3.65-3.87,7.43-7.62,11.14-11.43.69-.71,1.33-.92,2.23-.35,9.07,5.74,18.21,11.36,27.18,17.24,2.77,1.81,5.06,4.34,7.62,6.49,1.23,1.03,1.38,2.27.99,3.7-2.57,2.6-5.14,5.21-7.73,7.8-4.26,4.28-8.53,8.54-12.82,12.8-.31.31-.74.49-1.11.73-.21.24-.42.47-.64.71Z"/><path class="cls-5" d="m110.41,59.56c3.18-4.77,2.35-10.78-1.49-14.73-1.21-1.25-1.78-2.69-1.17-4.45.65-1.85,2.09-2.83,3.87-2.79,1.11.02,2.42.64,3.25,1.42,4.17,3.91,10.95,4.17,15.41.56,1.08-.87,1.97-2.04,3.61-2.14,1.64-.1,3.4.63,4.15,2.09.8,1.57.56,3.46-.54,4.66-2.24,2.46-3.71,5.27-3.59,8.68.1,2.98,1.03,5.68,3.21,7.84,1.77,1.76,2.08,3.57,1.01,5.61-1.1,2.09-4.5,2.73-6.18,1.05-2.22-2.21-4.9-3.46-7.93-3.64-1.62-.1-3.29.57-4.94.89-1.44.93-3,1.7-4.28,2.81-2.24,1.94-5.69,1.23-6.78-1.52-.54-1.37-.09-2.6.28-3.86,0,0,.01-.02.01-.02.7-.82,1.39-1.64,2.09-2.46Zm15.37-4.04v-5.13h-5.17v5.13h5.17Z"/><path class="cls-5" d="m83.52,44.06c.51-1.73,1.6-3.05,2.88-4.27,2.1-2.01,4.13-4.09,6.17-6.16,4.73-4.79,9.44-9.59,14.16-14.39,3.5-3.56,6.99-7.13,10.47-10.72,1.76-1.82,4.53-1.62,6.12-.15,1.79,1.65,1.91,4.55.3,6.35-.05.06-.12.11-.17.17-4.58,4.66-9.15,9.31-13.73,13.97-5,5.09-10.01,10.16-15.01,15.25-1.32,1.34-2.61,2.71-3.91,4.07-3.52,2.16-7.15.1-7.27-4.12Z"/><path class="cls-5" d="m138.05,94.17c1.45-1.45,2.9-2.89,4.34-4.34.41-.49.82-.98,1.23-1.47,1.53-1.53,3.06-3.06,4.59-4.58.4-.48.8-.96,1.2-1.44.44-.33.92-.62,1.31-1,1.36-1.32,2.73-2.63,4.01-4.02,1.83-1.97,4.53-1.85,6.26-.3,2.02,1.81,1.87,4.71.11,6.55-1.14,1.19-2.3,2.36-3.45,3.54-.36.33-.73.64-1.06.98-4.01,4.08-7.99,8.18-12.02,12.24-1.83,1.84-5.21,1.43-6.62-.75-1.18-1.82-1-3.62.11-5.4Z"/><path class="cls-4" d="m138.05,94.17c-1.11,1.78-1.28,3.58-.11,5.4,1.41,2.18,4.79,2.59,6.62.75,4.02-4.06,8.01-8.16,12.02-12.24.34-.34.71-.66,1.06-.98,6.43,3.9,12.91,7.72,19.27,11.72,3.99,2.51,7.91,5.16,11.68,7.98,2.2,1.64,4.14,3.65,6.04,5.64,1.35,1.42,1.04,3.17-.4,4.03.39-1.43.24-2.66-.99-3.7-2.55-2.15-4.85-4.68-7.62-6.49-8.97-5.88-18.11-11.5-27.18-17.24-.9-.57-1.54-.36-2.23.35-3.71,3.82-7.49,7.56-11.14,11.43-1.7,1.8-3.74,1.89-5.8,1.38-3.38-.85-3.91-5.1-2.16-7.56.18-.25.61-.32.93-.48Z"/><path class="cls-4" d="m83.52,44.06c.11,4.22,3.75,6.28,7.27,4.12,1.73,1.05,3.45,2.12,5.19,3.14,4.51,2.64,9.03,5.26,13.55,7.88.27.16.59.25.88.37-.7.82-1.39,1.64-2.09,2.46.04-.24.02-.52.14-.7.63-.93-.03-1.27-.69-1.66-3.7-2.13-7.4-4.27-11.1-6.41-1.78-1.03-3.53-2.12-5.34-3.08-.55-.29-1.32-.44-1.93-.32-3.89.74-5.79-.39-6.86-4.14-.12-.42-.45-.88-.82-1.1-3.26-1.93-6.55-3.82-9.85-5.67-.3-.17-.8,0-1.21.02-1.55-1.63-3.09-3.25-4.84-5.1,6.04,3.48,11.87,6.84,17.7,10.2Z"/><path class="cls-4" d="m149.41,82.33c-.4.48-.8.96-1.2,1.44-.36-.44-.64-1.03-1.11-1.3-6.09-3.56-12.2-7.08-18.31-10.61-3.18-1.83-6.37-3.65-9.52-5.51-.74-.44-1.36-.41-2,.07-.8.6-1.64,1.18-2.39,1.84-1.62,1.45-4.65,1.69-6.42.45-1.59-1.11-2.16-3.47-1.26-5.57.19-.45.73-.74,1.1-1.11-.37,1.27-.83,2.49-.28,3.86,1.09,2.74,4.54,3.46,6.78,1.52,1.28-1.11,2.84-1.88,4.28-2.81,3.1,1.83,6.18,3.67,9.29,5.47,6.78,3.93,13.57,7.83,20.36,11.75.24.14.45.33.68.5Z"/><path class="cls-4" d="m171.95,138.51c.21-.24.42-.47.64-.71-.21.24-.42.47-.64.71Z"/><path class="cls-4" d="m143.62,88.35c-.41.49-.82.98-1.23,1.47.06-.78.3-1.41,1.23-1.47Z"/></g></svg>